<svg xmlns="http://www.w3.org/2000/svg" xmlns:xlink="http://www.w3.org/1999/xlink" width="72" height="72" viewBox="0 0 72 72">
  <defs>
    <filter id="Ellipse_1077" x="0" y="0" width="72" height="72" filterUnits="userSpaceOnUse">
      <feOffset dy="3" input="SourceAlpha"/>
      <feGaussianBlur stdDeviation="3" result="blur"/>
      <feFlood flood-opacity="0.161"/>
      <feComposite operator="in" in2="blur"/>
      <feComposite in="SourceGraphic"/>
    </filter>
  </defs>
  <g id="Group_7896" data-name="Group 7896" transform="translate(-1377 -858)">
    <g transform="matrix(1, 0, 0, 1, 1377, 858)" filter="url(#Ellipse_1077)">
      <circle id="Ellipse_1077-2" data-name="Ellipse 1077" cx="27" cy="27" r="27" transform="translate(9 6)" fill="#fff"/>
    </g>
    <g id="Group_2" data-name="Group 2" transform="translate(1394.379 871.448)">
      <path id="Rectangle_4424" data-name="Rectangle 4424" d="M5.5,0h18.23A13.762,13.762,0,0,1,37.5,13.762v0A13.762,13.762,0,0,1,23.734,27.524H5.5a5.5,5.5,0,0,1-5.5-5.5V5.5A5.5,5.5,0,0,1,5.5,0Z" transform="translate(0 7.344)" fill="#a12527"/>
      <rect id="Rectangle_4425" data-name="Rectangle 4425" width="24.333" height="8.377" rx="4.188" transform="translate(5.983 12.529)" fill="#fff"/>
      <circle id="Ellipse_1070" data-name="Ellipse 1070" cx="1.596" cy="1.596" r="1.596" transform="translate(9.573 15.321)" fill="#a12527"/>
      <circle id="Ellipse_1071" data-name="Ellipse 1071" cx="1.596" cy="1.596" r="1.596" transform="translate(23.535 15.321)" fill="#a12527"/>
      <path id="Polygon_7" data-name="Polygon 7" d="M2.593,0,5.186,4.787H0Z" transform="translate(27.125 38.856) rotate(180)" fill="#a12527"/>
      <g id="Group_7224" data-name="Group 7224" transform="translate(16.712 0)">
        <circle id="Ellipse_1072" data-name="Ellipse 1072" cx="2.404" cy="2.404" r="2.404" transform="translate(0)" fill="#a12527"/>
        <path id="Path_22747" data-name="Path 22747" d="M-3066.017,2320c-.023.481,0,5.029,0,5.029" transform="translate(3068.431 -2317.596)" fill="#a12527" stroke="#a12527" stroke-width="2"/>
      </g>
      <text id="BETA" transform="translate(9.763 27.75)" fill="#fff" font-size="6" font-family="Roboto-Medium, Roboto" font-weight="500"><tspan x="0" y="0">BETA</tspan></text>
    </g>
  </g>
</svg>
